<?xml version="1.0" standalone="no"?>
<svg viewBox="0 0 200 200" xmlns="http://www.w3.org/2000/svg">
  <path d="M44.9,-78.3C58.8,-69.7,71.2,-59,79.2,-45.6C87.3,-32.2,90.9,-16.1,90.2,-0.4C89.5,15.2,84.3,30.5,76.3,44C68.4,57.6,57.7,69.5,44.5,78C31.3,86.6,15.7,91.7,0,91.7C-15.6,91.6,-31.2,86.3,-44.2,77.7C-57.3,69,-67.8,57.1,-76.1,43.6C-84.5,30.1,-90.7,15.1,-91.3,-0.3C-91.9,-15.7,-86.8,-31.5,-78.8,-45.5C-70.7,-59.5,-59.7,-71.8,-46,-80.6C-32.4,-89.3,-16.2,-94.5,-0.4,-93.9C15.5,-93.3,31,-86.8,44.9,-78.3Z" transform="translate(100 100)" />
</svg>
