<?xml version="1.0" standalone="no"?>
<svg class="home-blob" viewBox="0 0 200 200" xmlns="http://www.w3.org/2000/svg">
  <mask id="mask0" mask-type="alpha">
    <path d="M50.1,-69.8C63.3,-59.3,71.4,-42.6,76.5,-25.2C81.6,-7.9,83.7,10,78.7,25.6C73.7,41.3,61.6,54.7,47.3,63C33,71.3,16.5,74.5,1.3,72.8C-13.9,71,-27.9,64.3,-40.9,55.5C-53.9,46.8,-66.1,36.1,-73.2,22C-80.2,7.8,-82.2,-9.7,-76.6,-24.2C-70.9,-38.6,-57.7,-50,-43.7,-60.3C-29.7,-70.6,-14.8,-79.9,1.8,-82.3C18.4,-84.8,36.8,-80.4,50.1,-69.8Z" transform="translate(100 100)" />
  </mask>
  <g mask="url(#mask0)">
    <path d="M50.1,-69.8C63.3,-59.3,71.4,-42.6,76.5,-25.2C81.6,-7.9,83.7,10,78.7,25.6C73.7,41.3,61.6,54.7,47.3,63C33,71.3,16.5,74.5,1.3,72.8C-13.9,71,-27.9,64.3,-40.9,55.5C-53.9,46.8,-66.1,36.1,-73.2,22C-80.2,7.8,-82.2,-9.7,-76.6,-24.2C-70.9,-38.6,-57.7,-50,-43.7,-60.3C-29.7,-70.6,-14.8,-79.9,1.8,-82.3C18.4,-84.8,36.8,-80.4,50.1,-69.8Z" transform="translate(100 100)" />
    <image class="home-blob-img" x="12" y="18" xlink:href="assets/img/profile.png"/>
  </g>
</svg>